<mxfile host="app.diagrams.net" modified="2023-03-29T08:37:43.848Z" agent="Mozilla/5.0 (Windows NT 10.0; Win64; x64) AppleWebKit/537.36 (KHTML, like Gecko) Chrome/111.0.0.0 Safari/537.36" etag="A7pcJrtiD9ORLZdHGKcX" version="21.1.1" type="device">
  <diagram name="Страница 1" id="oSRPHqkPzE97m6egfKVx">
    <mxGraphModel dx="1687" dy="869" grid="1" gridSize="10" guides="1" tooltips="1" connect="1" arrows="1" fold="1" page="1" pageScale="1" pageWidth="827" pageHeight="1169" math="0" shadow="0">
      <root>
        <mxCell id="0" />
        <mxCell id="1" parent="0" />
        <mxCell id="A3i65NL6fh9ZOgqrb21Z-12" value="" style="edgeStyle=orthogonalEdgeStyle;rounded=0;orthogonalLoop=1;jettySize=auto;html=1;" edge="1" parent="1" source="A3i65NL6fh9ZOgqrb21Z-1" target="A3i65NL6fh9ZOgqrb21Z-2">
          <mxGeometry relative="1" as="geometry" />
        </mxCell>
        <mxCell id="A3i65NL6fh9ZOgqrb21Z-1" value="&lt;font style=&quot;vertical-align: inherit;&quot;&gt;&lt;font style=&quot;vertical-align: inherit;&quot;&gt;&lt;font style=&quot;vertical-align: inherit;&quot;&gt;&lt;font style=&quot;vertical-align: inherit;&quot;&gt;&lt;font style=&quot;vertical-align: inherit;&quot;&gt;&lt;font style=&quot;vertical-align: inherit;&quot;&gt;&lt;font style=&quot;vertical-align: inherit;&quot;&gt;&lt;font style=&quot;vertical-align: inherit;&quot;&gt;&lt;font style=&quot;vertical-align: inherit;&quot;&gt;&lt;font style=&quot;vertical-align: inherit;&quot;&gt;statr&lt;/font&gt;&lt;/font&gt;&lt;/font&gt;&lt;/font&gt;&lt;/font&gt;&lt;/font&gt;&lt;/font&gt;&lt;/font&gt;&lt;/font&gt;&lt;/font&gt;" style="rounded=1;whiteSpace=wrap;html=1;" vertex="1" parent="1">
          <mxGeometry x="320" y="40" width="70" height="30" as="geometry" />
        </mxCell>
        <mxCell id="A3i65NL6fh9ZOgqrb21Z-13" value="" style="edgeStyle=orthogonalEdgeStyle;rounded=0;orthogonalLoop=1;jettySize=auto;html=1;" edge="1" parent="1" source="A3i65NL6fh9ZOgqrb21Z-2" target="A3i65NL6fh9ZOgqrb21Z-3">
          <mxGeometry relative="1" as="geometry" />
        </mxCell>
        <mxCell id="A3i65NL6fh9ZOgqrb21Z-2" value="&lt;font style=&quot;vertical-align: inherit;&quot;&gt;&lt;font style=&quot;vertical-align: inherit;&quot;&gt;size&lt;br&gt;array[size]&lt;br&gt;&lt;/font&gt;&lt;/font&gt;" style="shape=parallelogram;perimeter=parallelogramPerimeter;whiteSpace=wrap;html=1;fixedSize=1;" vertex="1" parent="1">
          <mxGeometry x="307" y="100" width="96" height="40" as="geometry" />
        </mxCell>
        <mxCell id="A3i65NL6fh9ZOgqrb21Z-14" value="" style="edgeStyle=orthogonalEdgeStyle;rounded=0;orthogonalLoop=1;jettySize=auto;html=1;" edge="1" parent="1" source="A3i65NL6fh9ZOgqrb21Z-3" target="A3i65NL6fh9ZOgqrb21Z-4">
          <mxGeometry relative="1" as="geometry" />
        </mxCell>
        <mxCell id="A3i65NL6fh9ZOgqrb21Z-3" value="i-0&lt;br&gt;j=0&lt;br&gt;step=1&lt;br&gt;counter=0" style="whiteSpace=wrap;html=1;aspect=fixed;" vertex="1" parent="1">
          <mxGeometry x="325" y="170" width="60" height="60" as="geometry" />
        </mxCell>
        <mxCell id="A3i65NL6fh9ZOgqrb21Z-15" style="edgeStyle=orthogonalEdgeStyle;rounded=0;orthogonalLoop=1;jettySize=auto;html=1;entryX=0.5;entryY=0;entryDx=0;entryDy=0;" edge="1" parent="1" source="A3i65NL6fh9ZOgqrb21Z-4" target="A3i65NL6fh9ZOgqrb21Z-5">
          <mxGeometry relative="1" as="geometry" />
        </mxCell>
        <mxCell id="A3i65NL6fh9ZOgqrb21Z-16" style="edgeStyle=orthogonalEdgeStyle;rounded=0;orthogonalLoop=1;jettySize=auto;html=1;entryX=0.589;entryY=-0.086;entryDx=0;entryDy=0;entryPerimeter=0;" edge="1" parent="1" source="A3i65NL6fh9ZOgqrb21Z-4" target="A3i65NL6fh9ZOgqrb21Z-6">
          <mxGeometry relative="1" as="geometry" />
        </mxCell>
        <mxCell id="A3i65NL6fh9ZOgqrb21Z-4" value="i&amp;lt;size" style="rhombus;whiteSpace=wrap;html=1;" vertex="1" parent="1">
          <mxGeometry x="317.5" y="260" width="75" height="60" as="geometry" />
        </mxCell>
        <mxCell id="A3i65NL6fh9ZOgqrb21Z-19" style="edgeStyle=orthogonalEdgeStyle;rounded=0;orthogonalLoop=1;jettySize=auto;html=1;" edge="1" parent="1" source="A3i65NL6fh9ZOgqrb21Z-5">
          <mxGeometry relative="1" as="geometry">
            <mxPoint x="80" y="469.9999999999998" as="targetPoint" />
          </mxGeometry>
        </mxCell>
        <mxCell id="A3i65NL6fh9ZOgqrb21Z-22" style="edgeStyle=orthogonalEdgeStyle;rounded=0;orthogonalLoop=1;jettySize=auto;html=1;" edge="1" parent="1" source="A3i65NL6fh9ZOgqrb21Z-5">
          <mxGeometry relative="1" as="geometry">
            <mxPoint x="180" y="559.9999999999998" as="targetPoint" />
          </mxGeometry>
        </mxCell>
        <mxCell id="A3i65NL6fh9ZOgqrb21Z-5" value="array[i].lenght&amp;lt;4" style="rhombus;whiteSpace=wrap;html=1;" vertex="1" parent="1">
          <mxGeometry x="120" y="360" width="120" height="80" as="geometry" />
        </mxCell>
        <mxCell id="A3i65NL6fh9ZOgqrb21Z-27" value="" style="edgeStyle=orthogonalEdgeStyle;rounded=0;orthogonalLoop=1;jettySize=auto;html=1;" edge="1" parent="1" source="A3i65NL6fh9ZOgqrb21Z-6" target="A3i65NL6fh9ZOgqrb21Z-8">
          <mxGeometry relative="1" as="geometry" />
        </mxCell>
        <mxCell id="A3i65NL6fh9ZOgqrb21Z-6" value="cutArray[counter]&lt;br&gt;i=0" style="rounded=0;whiteSpace=wrap;html=1;" vertex="1" parent="1">
          <mxGeometry x="500" y="360" width="110" height="50" as="geometry" />
        </mxCell>
        <mxCell id="A3i65NL6fh9ZOgqrb21Z-25" style="edgeStyle=orthogonalEdgeStyle;rounded=0;orthogonalLoop=1;jettySize=auto;html=1;" edge="1" parent="1" source="A3i65NL6fh9ZOgqrb21Z-7">
          <mxGeometry relative="1" as="geometry">
            <mxPoint x="180" y="530" as="targetPoint" />
            <Array as="points">
              <mxPoint x="85" y="520" />
              <mxPoint x="180" y="520" />
            </Array>
          </mxGeometry>
        </mxCell>
        <mxCell id="A3i65NL6fh9ZOgqrb21Z-7" value="counter = counter + 1" style="rounded=0;whiteSpace=wrap;html=1;" vertex="1" parent="1">
          <mxGeometry x="20" y="470" width="130" height="20" as="geometry" />
        </mxCell>
        <mxCell id="A3i65NL6fh9ZOgqrb21Z-29" style="edgeStyle=orthogonalEdgeStyle;rounded=0;orthogonalLoop=1;jettySize=auto;html=1;" edge="1" parent="1" source="A3i65NL6fh9ZOgqrb21Z-8">
          <mxGeometry relative="1" as="geometry">
            <mxPoint x="480" y="529.9999999999998" as="targetPoint" />
          </mxGeometry>
        </mxCell>
        <mxCell id="A3i65NL6fh9ZOgqrb21Z-32" style="edgeStyle=orthogonalEdgeStyle;rounded=0;orthogonalLoop=1;jettySize=auto;html=1;entryX=0;entryY=0.5;entryDx=0;entryDy=0;" edge="1" parent="1" source="A3i65NL6fh9ZOgqrb21Z-8" target="A3i65NL6fh9ZOgqrb21Z-31">
          <mxGeometry relative="1" as="geometry" />
        </mxCell>
        <mxCell id="A3i65NL6fh9ZOgqrb21Z-8" value="i &amp;lt; size" style="rhombus;whiteSpace=wrap;html=1;" vertex="1" parent="1">
          <mxGeometry x="515" y="440" width="80" height="70" as="geometry" />
        </mxCell>
        <mxCell id="A3i65NL6fh9ZOgqrb21Z-34" style="edgeStyle=orthogonalEdgeStyle;rounded=0;orthogonalLoop=1;jettySize=auto;html=1;" edge="1" parent="1" source="A3i65NL6fh9ZOgqrb21Z-9">
          <mxGeometry relative="1" as="geometry">
            <mxPoint x="400" y="629.9999999999998" as="targetPoint" />
          </mxGeometry>
        </mxCell>
        <mxCell id="A3i65NL6fh9ZOgqrb21Z-37" style="edgeStyle=orthogonalEdgeStyle;rounded=0;orthogonalLoop=1;jettySize=auto;html=1;entryX=0.5;entryY=0;entryDx=0;entryDy=0;" edge="1" parent="1" source="A3i65NL6fh9ZOgqrb21Z-9" target="A3i65NL6fh9ZOgqrb21Z-39">
          <mxGeometry relative="1" as="geometry">
            <mxPoint x="477.5" y="699.9999999999998" as="targetPoint" />
          </mxGeometry>
        </mxCell>
        <mxCell id="A3i65NL6fh9ZOgqrb21Z-9" value="array[i].lenght &amp;lt;=3" style="rhombus;whiteSpace=wrap;html=1;" vertex="1" parent="1">
          <mxGeometry x="420" y="530" width="115" height="70" as="geometry" />
        </mxCell>
        <mxCell id="A3i65NL6fh9ZOgqrb21Z-41" style="edgeStyle=orthogonalEdgeStyle;rounded=0;orthogonalLoop=1;jettySize=auto;html=1;" edge="1" parent="1" source="A3i65NL6fh9ZOgqrb21Z-11">
          <mxGeometry relative="1" as="geometry">
            <mxPoint x="480" y="720" as="targetPoint" />
            <Array as="points">
              <mxPoint x="372" y="720" />
            </Array>
          </mxGeometry>
        </mxCell>
        <mxCell id="A3i65NL6fh9ZOgqrb21Z-11" value="cutArray[j]=array[i]&lt;br&gt;j=j+1" style="rounded=0;whiteSpace=wrap;html=1;" vertex="1" parent="1">
          <mxGeometry x="307" y="630" width="130" height="50" as="geometry" />
        </mxCell>
        <mxCell id="A3i65NL6fh9ZOgqrb21Z-17" value="yes" style="text;html=1;align=center;verticalAlign=middle;resizable=0;points=[];autosize=1;strokeColor=none;fillColor=none;" vertex="1" parent="1">
          <mxGeometry x="230" y="255" width="40" height="30" as="geometry" />
        </mxCell>
        <mxCell id="A3i65NL6fh9ZOgqrb21Z-18" value="no" style="text;html=1;align=center;verticalAlign=middle;resizable=0;points=[];autosize=1;strokeColor=none;fillColor=none;" vertex="1" parent="1">
          <mxGeometry x="470" y="255" width="40" height="30" as="geometry" />
        </mxCell>
        <mxCell id="A3i65NL6fh9ZOgqrb21Z-20" value="yes" style="text;html=1;align=center;verticalAlign=middle;resizable=0;points=[];autosize=1;strokeColor=none;fillColor=none;" vertex="1" parent="1">
          <mxGeometry x="65" y="360" width="40" height="30" as="geometry" />
        </mxCell>
        <mxCell id="A3i65NL6fh9ZOgqrb21Z-21" value="i=i+step" style="rounded=0;whiteSpace=wrap;html=1;" vertex="1" parent="1">
          <mxGeometry x="140" y="560" width="90" height="40" as="geometry" />
        </mxCell>
        <mxCell id="A3i65NL6fh9ZOgqrb21Z-26" value="no" style="text;html=1;align=center;verticalAlign=middle;resizable=0;points=[];autosize=1;strokeColor=none;fillColor=none;" vertex="1" parent="1">
          <mxGeometry x="170" y="445" width="40" height="30" as="geometry" />
        </mxCell>
        <mxCell id="A3i65NL6fh9ZOgqrb21Z-30" value="yes" style="text;html=1;align=center;verticalAlign=middle;resizable=0;points=[];autosize=1;strokeColor=none;fillColor=none;" vertex="1" parent="1">
          <mxGeometry x="480" y="445" width="40" height="30" as="geometry" />
        </mxCell>
        <mxCell id="A3i65NL6fh9ZOgqrb21Z-31" value="end" style="rounded=1;whiteSpace=wrap;html=1;" vertex="1" parent="1">
          <mxGeometry x="670" y="460" width="70" height="30" as="geometry" />
        </mxCell>
        <mxCell id="A3i65NL6fh9ZOgqrb21Z-33" value="no" style="text;html=1;align=center;verticalAlign=middle;resizable=0;points=[];autosize=1;strokeColor=none;fillColor=none;" vertex="1" parent="1">
          <mxGeometry x="590" y="445" width="40" height="30" as="geometry" />
        </mxCell>
        <mxCell id="A3i65NL6fh9ZOgqrb21Z-35" value="yes" style="text;html=1;align=center;verticalAlign=middle;resizable=0;points=[];autosize=1;strokeColor=none;fillColor=none;" vertex="1" parent="1">
          <mxGeometry x="390" y="535" width="40" height="30" as="geometry" />
        </mxCell>
        <mxCell id="A3i65NL6fh9ZOgqrb21Z-43" style="edgeStyle=orthogonalEdgeStyle;rounded=0;orthogonalLoop=1;jettySize=auto;html=1;" edge="1" parent="1" source="A3i65NL6fh9ZOgqrb21Z-39">
          <mxGeometry relative="1" as="geometry">
            <mxPoint x="550" y="420" as="targetPoint" />
            <Array as="points">
              <mxPoint x="280" y="770" />
              <mxPoint x="280" y="420" />
            </Array>
          </mxGeometry>
        </mxCell>
        <mxCell id="A3i65NL6fh9ZOgqrb21Z-39" value="&#xa;&lt;span style=&quot;color: rgb(0, 0, 0); font-family: Helvetica; font-size: 12px; font-style: normal; font-variant-ligatures: normal; font-variant-caps: normal; font-weight: 400; letter-spacing: normal; orphans: 2; text-align: center; text-indent: 0px; text-transform: none; widows: 2; word-spacing: 0px; -webkit-text-stroke-width: 0px; background-color: rgb(251, 251, 251); text-decoration-thickness: initial; text-decoration-style: initial; text-decoration-color: initial; float: none; display: inline !important;&quot;&gt;i=i+step&lt;/span&gt;&#xa;&#xa;" style="rounded=0;whiteSpace=wrap;html=1;" vertex="1" parent="1">
          <mxGeometry x="427.5" y="750" width="100" height="40" as="geometry" />
        </mxCell>
        <mxCell id="A3i65NL6fh9ZOgqrb21Z-42" value="no" style="text;html=1;align=center;verticalAlign=middle;resizable=0;points=[];autosize=1;strokeColor=none;fillColor=none;" vertex="1" parent="1">
          <mxGeometry x="470" y="635" width="40" height="30" as="geometry" />
        </mxCell>
      </root>
    </mxGraphModel>
  </diagram>
</mxfile>
